<svg width="16" height="16" viewBox="0 0 16 16" fill="none" xmlns="http://www.w3.org/2000/svg">
<mask id="mask0_592_4275" style="mask-type:alpha" maskUnits="userSpaceOnUse" x="0" y="0" width="16" height="16">
<rect width="16" height="16" fill="#D9D9D9"/>
</mask>
<g mask="url(#mask0_592_4275)">
<path d="M7.33325 8.66634H3.99992C3.81103 8.66634 3.6527 8.60245 3.52492 8.47467C3.39714 8.3469 3.33325 8.18856 3.33325 7.99967C3.33325 7.81079 3.39714 7.65245 3.52492 7.52467C3.6527 7.3969 3.81103 7.33301 3.99992 7.33301H7.33325V3.99967C7.33325 3.81079 7.39714 3.65245 7.52492 3.52467C7.6527 3.3969 7.81103 3.33301 7.99992 3.33301C8.18881 3.33301 8.34714 3.3969 8.47492 3.52467C8.6027 3.65245 8.66659 3.81079 8.66659 3.99967V7.33301H11.9999C12.1888 7.33301 12.3471 7.3969 12.4749 7.52467C12.6027 7.65245 12.6666 7.81079 12.6666 7.99967C12.6666 8.18856 12.6027 8.3469 12.4749 8.47467C12.3471 8.60245 12.1888 8.66634 11.9999 8.66634H8.66659V11.9997C8.66659 12.1886 8.6027 12.3469 8.47492 12.4747C8.34714 12.6025 8.18881 12.6663 7.99992 12.6663C7.81103 12.6663 7.6527 12.6025 7.52492 12.4747C7.39714 12.3469 7.33325 12.1886 7.33325 11.9997V8.66634Z" fill="#2A7074"/>
</g>
</svg>
