<svg width="36" height="36" viewBox="0 0 36 36" fill="none" xmlns="http://www.w3.org/2000/svg">
<path d="M0 18C0 8.05888 8.05888 0 18 0C27.9411 0 36 8.05888 36 18C36 27.9411 27.9411 36 18 36C8.05888 36 0 27.9411 0 18Z" fill="#2A7074"/>
<mask id="mask0_460_3822" style="mask-type:alpha" maskUnits="userSpaceOnUse" x="6" y="6" width="24" height="24">
<rect x="6" y="6" width="24" height="24" fill="#D9D9D9"/>
</mask>
<g mask="url(#mask0_460_3822)">
<path d="M22.15 19H11C10.7167 19 10.4792 18.9042 10.2875 18.7125C10.0958 18.5208 10 18.2833 10 18C10 17.7167 10.0958 17.4792 10.2875 17.2875C10.4792 17.0958 10.7167 17 11 17H22.15L19.3 14.15C19.1 13.95 19.0042 13.7167 19.0125 13.45C19.0208 13.1833 19.1167 12.95 19.3 12.75C19.5 12.55 19.7375 12.4458 20.0125 12.4375C20.2875 12.4292 20.525 12.525 20.725 12.725L25.3 17.3C25.4 17.4 25.4708 17.5083 25.5125 17.625C25.5542 17.7417 25.575 17.8667 25.575 18C25.575 18.1333 25.5542 18.2583 25.5125 18.375C25.4708 18.4917 25.4 18.6 25.3 18.7L20.725 23.275C20.525 23.475 20.2875 23.5708 20.0125 23.5625C19.7375 23.5542 19.5 23.45 19.3 23.25C19.1167 23.05 19.0208 22.8167 19.0125 22.55C19.0042 22.2833 19.1 22.05 19.3 21.85L22.15 19Z" fill="white"/>
</g>
</svg>
