<svg width="24" height="24" viewBox="0 0 24 24" fill="none" xmlns="http://www.w3.org/2000/svg">
<g clip-path="url(#clip0_468_5317)">
<circle cx="64" cy="12" r="64" fill="#C9FCFF"/>
<path d="M15.3707 17.9142C17.6753 18.7386 17.474 14.0368 17.4195 13.011C17.3651 11.656 17.1801 10.3037 16.9434 8.94865C16.7964 8.1242 16.742 7.04671 16.0645 6.4617C14.2524 4.86723 12.3695 7.81402 11.5641 9.07654C10.6852 7.81402 8.52476 5.03321 6.91668 6.99229C6.348 7.70518 6.31263 8.76635 6.18474 9.62617C5.96434 11.071 5.74395 12.5349 5.59702 13.9987C5.46913 15.0436 5.21336 16.3768 5.85551 17.3101C6.42146 18.1155 7.30033 18.1155 7.88533 17.3292C9.18595 15.5742 8.32341 13.011 9.14786 11.1445C9.65939 11.9852 10.3179 13.7811 11.4715 13.8518C12.5708 13.9253 13.6129 12.4995 14.3095 11.8029C14.4918 13.177 14.4183 14.5293 14.5081 15.9034C14.5462 16.5782 14.6006 17.623 15.3707 17.9142Z" fill="#2A7074"/>
<path d="M18.3492 16.815C19.144 18.7297 22.1269 16.3419 20.8332 15.1258C19.8389 13.6325 17.7246 15.3476 18.3492 16.815Z" fill="#2A7074"/>
</g>
<defs>
<clipPath id="clip0_468_5317">
<rect width="24" height="24" rx="12" fill="white"/>
</clipPath>
</defs>
</svg>
