<svg width="24" height="24" viewBox="0 0 24 24" fill="none" xmlns="http://www.w3.org/2000/svg">
<g clip-path="url(#clip0_468_5379)">
<circle cx="12" cy="12" r="12" fill="#DAD5CF"/>
<path d="M9.37813 18.4021C10.9005 19.1898 13.6239 18.7401 14.7328 17.4245C16.1406 15.7709 16.0289 12.4664 15.9702 10.419C15.9898 9.62846 16.0093 8.53909 15.3529 7.97485C14.5261 7.28212 13.6043 7.88267 13.3222 8.7849C13.0233 9.7793 13.4172 11.1508 13.4172 12.2039C13.4172 13.2346 13.4367 14.3994 12.9647 15.3574C12.4396 16.4105 11.5206 16.1284 11.1072 15.0949C10.6742 13.986 10.8446 12.5781 10.8614 11.4134C10.9005 10.0614 11.2189 7.01676 9.13512 7C6.48431 7 6.97313 10.9441 7.16028 12.5781C7.40609 14.5502 7.33067 17.349 9.37813 18.4021Z" fill="#0A0A0A"/>
</g>
<defs>
<clipPath id="clip0_468_5379">
<rect width="24" height="24" fill="white"/>
</clipPath>
</defs>
</svg>
